REM DIRINDEX 1\2,1\3,1\4,1\5\6,1\5\7,1\8
REM DIRNAME folder01,folder02,folder03,folder04,folder05,folder06,folder07,folder08
TITLE ""
FILE "135 【135】Unit8 (1525 recipient_1536 cognitive).mp3" MP3
  TRACK 01 AUDIO
    TITLE "0:"
    INDEX 01 00:00:00
  TRACK 02 AUDIO
    TITLE "2:cjc115_5288"
    INDEX 01 00:00:07
  TRACK 03 AUDIO
    TITLE "0:"
    INDEX 01 00:01:32
  TRACK 04 AUDIO
    TITLE "3:cjc115_5289"
    INDEX 01 00:01:40
  TRACK 05 AUDIO
    TITLE "0:"
    INDEX 01 00:03:37
  TRACK 06 AUDIO
    TITLE "4:cjc115_5290"
    INDEX 01 00:03:49
  TRACK 07 AUDIO
    TITLE "0:"
    INDEX 01 00:07:00
  TRACK 08 AUDIO
    TITLE "2:cjc115_5291"
    INDEX 01 00:08:15
  TRACK 09 AUDIO
    TITLE "0:"
    INDEX 01 00:09:32
  TRACK 10 AUDIO
    TITLE "3:cjc115_5292"
    INDEX 01 00:09:40
  TRACK 11 AUDIO
    TITLE "0:"
    INDEX 01 00:13:37
  TRACK 12 AUDIO
    TITLE "4:cjc115_5293"
    INDEX 01 00:13:47
  TRACK 13 AUDIO
    TITLE "0:"
    INDEX 01 00:18:35
  TRACK 14 AUDIO
    TITLE "2:cjc115_5294"
    INDEX 01 00:19:44
  TRACK 15 AUDIO
    TITLE "0:"
    INDEX 01 00:20:63
  TRACK 16 AUDIO
    TITLE "3:cjc115_5295"
    INDEX 01 00:20:73
  TRACK 17 AUDIO
    TITLE "0:"
    INDEX 01 00:22:23
  TRACK 18 AUDIO
    TITLE "4:cjc115_5296"
    INDEX 01 00:22:29
  TRACK 19 AUDIO
    TITLE "0:"
    INDEX 01 00:25:72
  TRACK 20 AUDIO
    TITLE "2:cjc115_5297"
    INDEX 01 00:27:06
  TRACK 21 AUDIO
    TITLE "0:"
    INDEX 01 00:28:29
  TRACK 22 AUDIO
    TITLE "3:cjc115_5298"
    INDEX 01 00:28:39
  TRACK 23 AUDIO
    TITLE "0:"
    INDEX 01 00:30:01
  TRACK 24 AUDIO
    TITLE "4:cjc115_5299"
    INDEX 01 00:30:05
  TRACK 25 AUDIO
    TITLE "0:"
    INDEX 01 00:34:32
  TRACK 26 AUDIO
    TITLE "2:cjc115_5300"
    INDEX 01 00:35:41
  TRACK 27 AUDIO
    TITLE "0:"
    INDEX 01 00:36:50
  TRACK 28 AUDIO
    TITLE "3:cjc115_5301"
    INDEX 01 00:36:56
  TRACK 29 AUDIO
    TITLE "0:"
    INDEX 01 00:40:30
  TRACK 30 AUDIO
    TITLE "4:cjc115_5302"
    INDEX 01 00:40:34
  TRACK 31 AUDIO
    TITLE "0:"
    INDEX 01 00:44:05
  TRACK 32 AUDIO
    TITLE "2:cjc115_5303"
    INDEX 01 00:45:10
  TRACK 33 AUDIO
    TITLE "0:"
    INDEX 01 00:46:25
  TRACK 34 AUDIO
    TITLE "3:cjc115_5304"
    INDEX 01 00:46:35
  TRACK 35 AUDIO
    TITLE "0:"
    INDEX 01 00:47:50
  TRACK 36 AUDIO
    TITLE "4:cjc115_5305"
    INDEX 01 00:47:66
  TRACK 37 AUDIO
    TITLE "0:"
    INDEX 01 00:50:50
  TRACK 38 AUDIO
    TITLE "2:cjc115_5306"
    INDEX 01 00:51:58
  TRACK 39 AUDIO
    TITLE "0:"
    INDEX 01 00:52:67
  TRACK 40 AUDIO
    TITLE "3:cjc115_5307"
    INDEX 01 00:52:73
  TRACK 41 AUDIO
    TITLE "0:"
    INDEX 01 00:54:17
  TRACK 42 AUDIO
    TITLE "4:cjc115_5308"
    INDEX 01 00:54:25
  TRACK 43 AUDIO
    TITLE "0:"
    INDEX 01 00:59:10
  TRACK 44 AUDIO
    TITLE "2:cjc115_5309"
    INDEX 01 01:00:17
  TRACK 45 AUDIO
    TITLE "0:"
    INDEX 01 01:01:44
  TRACK 46 AUDIO
    TITLE "3:cjc115_5310"
    INDEX 01 01:01:52
  TRACK 47 AUDIO
    TITLE "0:"
    INDEX 01 01:04:03
  TRACK 48 AUDIO
    TITLE "4:cjc115_5311"
    INDEX 01 01:04:13
  TRACK 49 AUDIO
    TITLE "0:"
    INDEX 01 01:07:27
  TRACK 50 AUDIO
    TITLE "2:cjc115_5312"
    INDEX 01 01:08:35
  TRACK 51 AUDIO
    TITLE "0:"
    INDEX 01 01:09:40
  TRACK 52 AUDIO
    TITLE "3:cjc115_5313"
    INDEX 01 01:09:48
  TRACK 53 AUDIO
    TITLE "0:"
    INDEX 01 01:10:57
  TRACK 54 AUDIO
    TITLE "4:cjc115_5314"
    INDEX 01 01:10:61
  TRACK 55 AUDIO
    TITLE "0:"
    INDEX 01 01:14:70
  TRACK 56 AUDIO
    TITLE "2:cjc115_5315"
    INDEX 01 01:16:05
  TRACK 57 AUDIO
    TITLE "0:"
    INDEX 01 01:17:18
  TRACK 58 AUDIO
    TITLE "3:cjc115_5316"
    INDEX 01 01:17:28
  TRACK 59 AUDIO
    TITLE "0:"
    INDEX 01 01:19:58
  TRACK 60 AUDIO
    TITLE "4:cjc115_5317"
    INDEX 01 01:19:68
  TRACK 61 AUDIO
    TITLE "0:"
    INDEX 01 01:22:62
  TRACK 62 AUDIO
    TITLE "2:cjc115_5318"
    INDEX 01 01:23:71
  TRACK 63 AUDIO
    TITLE "0:"
    INDEX 01 01:25:25
  TRACK 64 AUDIO
    TITLE "3:cjc115_5319"
    INDEX 01 01:25:33
  TRACK 65 AUDIO
    TITLE "0:"
    INDEX 01 01:26:50
  TRACK 66 AUDIO
    TITLE "4:cjc115_5320"
    INDEX 01 01:26:54
  TRACK 67 AUDIO
    TITLE "0:"
    INDEX 01 01:30:44
  TRACK 68 AUDIO
    TITLE "2:cjc115_5321"
    INDEX 01 01:31:51
  TRACK 69 AUDIO
    TITLE "0:"
    INDEX 01 01:32:70
  TRACK 70 AUDIO
    TITLE "3:cjc115_5322"
    INDEX 01 01:33:03
  TRACK 71 AUDIO
    TITLE "0:"
    INDEX 01 01:36:03
  TRACK 72 AUDIO
    TITLE "4:cjc115_5323"
    INDEX 01 01:36:09
  TRACK 73 AUDIO
    TITLE "0:"
    INDEX 01 01:39:12
